<svg xmlns="http://www.w3.org/2000/svg" width="20" height="20" viewBox="0 0 22 22" aria-hidden="true"><g fill="#FFFFFF" stroke="none" fill-rule="evenodd"><g transform="translate(1.000000, 1.000000)"><path d="M20,9.99998918 C20,4.47713475 15.5228436,0 10.0000108,0 C4.47717801,0 0,4.47713475 0,9.99998918 C0,14.9912662 3.65686066,19.1283074 8.43748817,19.8784947 L8.43748817,12.8906117 L5.89842402,12.8906117 L5.89842402,9.99998918 L8.43748817,9.99998918 L8.43748817,7.79686535 C8.43748817,5.29061649 9.93042163,3.9062309 12.2146427,3.9062309 C13.3087309,3.9062309 14.4531127,4.10154353 14.4531127,4.10154353 L14.4531127,6.56247397 L13.192136,6.56247397 C11.9498923,6.56247397 11.5624902,7.33331963 11.5624902,8.12413135 L11.5624902,9.99996755 L14.3359338,9.99996755 L13.8925705,12.8905901 L11.5624902,12.8905901 L11.5624902,19.8784947 C16.3431393,19.1283074 20,14.9912662 20,9.99998918"></path></g></g></svg>