<svg xmlns="http://www.w3.org/2000/svg" width="20" height="20" viewBox="0 0 22 22"><g fill="#FFFFFF" stroke="none" fill-rule="evenodd"><g transform="translate(1.000000, 1.000000)" fill-rule="nonzero"><path d="M14.906165,0 C16.2617858,0 17.5365181,0.526291633 18.4962122,1.48240267 C19.4574169,2.43984692 19.9875374,3.71367812 19.9890479,5.06920691 L20.0000031,14.9085874 C20.001504,16.2642255 19.4741856,17.5392151 18.515192,18.4987575 C17.5561984,19.4582781 16.2803058,19.9875421 14.9225835,19.989072 L5.09959223,20 L5.09387859,20 C2.36729639,20 0.13431412,17.8451418 0.0158276031,15.1503937 L0.0108862531,14.9306401 L3.12717285e-06,5.09125958 C-0.00308041722,2.29295298 2.27462519,0.0138785377 5.07741631,0.0107968466 L14.9004732,0 L14.906165,0 Z M14.9061869,1.78469252 L14.9024654,1.78469252 L5.07940842,1.79548937 C3.26234023,1.79752197 1.7856166,3.27505076 1.78765039,5.08924883 L1.79851059,14.9286512 C1.80054649,16.7415161 3.27860549,18.2151982 5.09387859,18.2151982 L5.09760012,18.2151982 L14.9204819,18.2042702 C15.8007981,18.2033304 16.6280497,17.8601043 17.2497635,17.2381054 C17.8714774,16.6159973 18.2132886,15.7894047 18.2123711,14.9105108 L18.2014235,5.07113024 C18.2004822,4.19230189 17.8567007,3.36649612 17.2335858,2.745743 C16.6114123,2.12597341 15.7848612,1.78469252 14.9061869,1.78469252 Z M9.99998896,4.4788773 C11.4771285,4.4788773 12.865849,5.05316463 13.9103283,6.09597828 C14.9548075,7.13874822 15.5300242,8.52522506 15.5300242,9.99997814 C15.5300242,11.4747312 14.9548075,12.8611862 13.9103283,13.9039999 C12.865849,14.9467698 11.4771285,15.521079 9.99998896,15.521079 C8.52284939,15.521079 7.13412891,14.9467917 6.08964964,13.903978 C5.04517037,12.8611862 4.46995371,11.4747094 4.46995371,9.99997814 C4.46995371,8.52524692 5.04517037,7.13877008 6.08967153,6.09597828 C7.1341508,5.05318649 8.52287128,4.4788773 9.99998896,4.4788773 Z M9.99998896,6.29292238 C7.95260206,6.29292238 6.28693433,7.95589903 6.28693433,9.99997814 C6.28693433,12.0440573 7.95260206,13.7070339 9.99998896,13.7070339 C12.0473759,13.7070339 13.7130436,12.0440573 13.7130436,9.99997814 C13.7130436,7.95587718 12.0473759,6.29292238 9.99998896,6.29292238 Z"></path></g></g></svg>