<svg xmlns="http://www.w3.org/2000/svg" width="20" height="20" viewBox="0 0 22 22"><g fill="#FFFFFF" stroke="none" fill-rule="evenodd"><g transform="translate(1.000000, 2.900000)" fill-rule="nonzero"><path d="M20,1.92151123 C19.2657615,2.24959018 18.472798,2.46829485 17.6448101,2.56577489 C18.4921535,2.05774628 19.1407623,1.25350298 19.4488274,0.296829155 C18.6558638,0.765488289 17.7772706,1.10919214 16.843683,1.29287246 C16.0938196,0.496134374 15.0277715,0 13.848004,0 C11.5827889,0 9.74690739,1.83588152 9.74690739,4.1010966 C9.74690739,4.42105587 9.78188785,4.73346603 9.85250712,5.0346842 C6.44316334,4.86285422 3.4199652,3.23000858 1.39724326,0.74674719 C1.04541973,1.35225584 0.842954422,2.0590191 0.842954422,2.8088386 C0.842954422,4.2304409 1.56529868,5.48771844 2.6669856,6.22257139 C1.9952467,6.20321583 1.36287726,6.01571707 0.807973964,5.71081212 C0.807973964,5.72643702 0.807973964,5.74579258 0.807973964,5.76141748 C0.807973964,7.74915895 2.22207105,9.40947984 4.10048213,9.78377512 C3.75677829,9.87752451 3.39376277,9.92812986 3.01880913,9.92812986 C2.75322977,9.92812986 2.49954464,9.90065462 2.24581562,9.85377993 C2.76946913,11.4822366 4.28482081,12.6695093 6.07698773,12.7051042 C4.67101033,13.8061328 2.90570418,14.4629051 0.980462295,14.4629051 C0.648652682,14.4629051 0.324348286,14.4435496 0,14.4041801 C1.82030052,15.5720973 3.97548296,16.2475668 6.29191785,16.2475668 C13.8373826,16.2475668 17.9653399,9.99501847 17.9653399,4.57414475 C17.9653399,4.39480955 17.9616093,4.21859056 17.9534457,4.04298602 C18.7539145,3.46872716 19.4493979,2.74633901 20,1.92212569 L20,1.92151123 L20,1.92151123 Z"></path></g></g></svg>