<svg
    xmlns="http://www.w3.org/2000/svg"
    width="20"
    height="20"
    viewBox="0 0 22 22"
>
    <g
    fill="#FFFFFF"
    stroke="none"
    fill-rule="evenodd"
    >
    <g transform="translate(1.000000, 4.000000)">
        <path d="M19.5823434,2.15833131 C19.3410029,1.31238908 18.6876329,0.659019065 17.8591972,0.422055204 L17.8416906,0.417678563 C16.2829811,1.09489913e-05 10.0087533,1.09489913e-05 10.0087533,1.09489913e-05 C10.0087533,1.09489913e-05 3.75078154,-0.00810610659 2.17581593,0.417678563 C1.3298737,0.659019065 0.676503689,1.31238908 0.439539827,2.14082474 L0.435163186,2.15833131 C0.158184319,3.58449112 0,5.22385588 0,6.90073471 C0,6.93449737 0,6.96888527 0,7.00264793 L0,6.99764605 C0,7.02077973 0,7.04891528 0,7.07642559 C0,8.75330442 0.158184319,10.3926692 0.460797799,11.98139 L0.435163186,11.818829 C0.676503689,12.6647712 1.3298737,13.3181412 2.15830937,13.5551051 L2.17581593,13.5594817 C3.73327498,13.9777636 10.0087533,13.9777636 10.0087533,13.9777636 C10.0087533,13.9777636 16.2660998,13.9777636 17.8416906,13.5594817 C18.6876329,13.3181412 19.3410029,12.6647712 19.5779667,11.8363356 L19.5823434,11.818829 C19.848068,10.4226804 20,8.81582787 20,7.17396217 C20,7.11206396 20,7.05016575 19.9993748,6.98826753 L19.9993748,6.99764605 C20,6.94012448 20,6.87197392 20,6.80382337 C20,5.16195767 19.848068,3.5551051 19.557334,1.99764605 L19.5823434,2.15895654 L19.5823434,2.15833131 Z M8.0061273,9.99126866 L8.0061273,3.99464493 L13.2280855,6.99764605 L8.0061273,9.99126866 Z"></path>
    </g>
    </g>
</svg>